/* XPM */
static char *b2bf429b77a94ebff6d311a0cf38bbf5rCdhb3uzHpE1XRvj[] = {
/* columns rows colors chars-per-pixel */
"32 32 164 2 ",
"   c None",
".  c #00358A",
"X  c #003F8D",
"o  c #00428E",
"O  c #08478F",
"+  c #004492",
"@  c #024A96",
"#  c #0B4D95",
"$  c #004798",
"%  c #004C9A",
"&  c #164C91",
"*  c #01549D",
"=  c #145194",
"-  c #1E5796",
";  c #105599",
":  c #1B579B",
">  c #1C599B",
",  c #225997",
"<  c #235B99",
"1  c #2F639D",
"2  c #30619A",
"3  c #0256A2",
"4  c #025AA5",
"5  c #0055A8",
"6  c #015DAA",
"7  c #005CB1",
"8  c #275DA0",
"9  c #0262AE",
"0  c #0F62A9",
"q  c #1E6DAE",
"w  c #0265B2",
"e  c #026AB6",
"r  c #0066BB",
"t  c #026CBB",
"y  c #0B6AB3",
"u  c #0270BF",
"i  c #0972BD",
"p  c #1A70B5",
"a  c #197ABD",
"s  c #2F63A2",
"d  c #296BA9",
"f  c #366AA4",
"g  c #3B6AA4",
"h  c #2A7DBE",
"j  c #3C79B2",
"k  c #406899",
"l  c #486FA3",
"z  c #4D78AC",
"x  c #4573A5",
"c  c #5F7EA5",
"v  c #537DAD",
"b  c #507EB0",
"n  c #006CC0",
"m  c #0273C4",
"M  c #0278C7",
"N  c #0277C8",
"B  c #037BCC",
"V  c #027ED1",
"C  c #2F81BE",
"Z  c #4D83B7",
"A  c #4986BF",
"S  c #4D89BC",
"D  c #5784B2",
"F  c #698CB5",
"G  c #6285B5",
"H  c #6E92BC",
"J  c #7090B5",
"K  c #7395BD",
"L  c #7799BE",
"P  c #1182CE",
"I  c #1984CE",
"U  c #0282D4",
"Y  c #0184D9",
"T  c #038BDC",
"R  c #0B8DD9",
"E  c #1A8AD0",
"W  c #0B90D8",
"Q  c #1194DD",
"!  c #1B92DA",
"~  c #2E88C9",
"^  c #248CCE",
"/  c #3186C2",
"(  c #3688C3",
")  c #2D9BDC",
"_  c #3EA5DF",
"`  c #018EE2",
"'  c #0291E4",
"]  c #38A4E4",
"[  c #4694CC",
"{  c #5499CA",
"}  c #6C9DC5",
"|  c #799CC2",
" . c #68A2CF",
".. c #62A1CC",
"X. c #7FA7C8",
"o. c #7BAACE",
"O. c #66ACD8",
"+. c #6FB2DD",
"@. c #74B3DE",
"#. c #41A6E0",
"$. c #43A9E1",
"%. c #55ACE2",
"&. c #66B2E1",
"*. c #7CBFE4",
"=. c #819FC3",
"-. c #87A3C5",
";. c #85A1C2",
":. c #8CA5C5",
">. c #8EA8C6",
",. c #91A9C7",
"<. c #95ACCA",
"1. c #97B0CB",
"2. c #9DB4CF",
"3. c #9CB3CF",
"4. c #8EB7D5",
"5. c #88BFDF",
"6. c #84B3D5",
"7. c #99BAD8",
"8. c #92BCDC",
"9. c #A6B9CE",
"0. c #AEBCCC",
"q. c #A5B7D0",
"w. c #A3B8D3",
"e. c #ACBDD4",
"r. c #A7C0D6",
"t. c #AFC1D7",
"y. c #ABC4DB",
"u. c #B0C1D6",
"i. c #B8C7D9",
"p. c #BCCADD",
"a. c #89C7EB",
"s. c #92C2E0",
"d. c #9CC5E0",
"f. c #98CAE4",
"g. c #98CDEB",
"h. c #A8D4EC",
"j. c #B3D2E6",
"k. c #BCD3E3",
"l. c #B3D7ED",
"z. c #BBDAED",
"x. c #C8D2DF",
"c. c #C5D1E0",
"v. c #CCD6E2",
"b. c #CDDAE6",
"n. c #C6DCEB",
"m. c #CFDFEA",
"M. c #C9DCE9",
"N. c #D5DFE9",
"B. c #CAE1EE",
"V. c #DBE2EA",
"C. c #D4E3EC",
"Z. c #CFE3F0",
"A. c #D4E6F0",
"S. c #D1E8F5",
"D. c #DDEBF3",
"F. c #E4E9EF",
"G. c #E5EEF5",
"H. c #E6F0F5",
"J. c #EDF3F6",
"K. c #F2F5F7",
"L. c #F2F6F9",
"P. c #F6F9FA",
"I. c white",
"U. c #FFFFFF",
/* pixels */
"                          2.K Z v K w.                          ",
"                    | s @ + @ @ @ + @ # f =.                    ",
"                F ; + % * * 3 * 3 * * * @ + = |                 ",
"            e.: o * * * 4 4 9 4 9 6 6 4 5 3 % + 8 p.            ",
"          -.+ @ * 4 9 9 9 9 w 9 9 9 w 9 6 6 3 3 @ # 1.          ",
"        -.o * 3 3 9 9 9 w t t t e t e w w 9 6 4 3 % o 3.        ",
"      t.o * * 6 9 w w t u u m m M M t u e t w 6 6 3 % # c.      ",
"      , @ * 6 9 9 t t m M M M M M M M u m t t w 6 4 3 $ 1       ",
"    H + * 4 9 w t u m M M B U U V U B M N m n t w 6 3 3 + -.    ",
"    # % 3 6 w t u m M B U U U Y U Y U U B m i e 9 6 6 3 @ >     ",
"  =.+ 3 6 9 e n m M B U Y T T T R T Y Y P j.C.m.C.b.S 3 3 + 2.  ",
"  f @ 3 4 w t n M B U Y T T ` T ` ` T Y O.I.I.I.I.I.S 4 3 @ z   ",
"  # % 4 9 w t N M U Y T T ` ` ` ` ` ' T z.I.I.I.U.N.w 6 3 * :   ",
"u.+ 3 4 9 e n N B U Y ` Q #.#._ $.] ` ) P.I.I.I.U.o.6 9 4 * + c.",
"<.o * 4 9 e t N V U R Y f.I.I.U.U.H.W *.I.I.I.I.L.h e 9 4 * + 9.",
"-.+ * 4 9 e m N V U Y ! J.I.I.I.I.h.T S.I.I.I.I.k.r t 9 4 * + ,.",
"-.+ * 6 6 w t m B U Y O.I.I.I.I.U.$.] U.I.I.I.I.} n e 6 6 * + <.",
"3.o 3 3 -.b.B.n.M.s.V z.I.I.I.I.D.T g.I.I.I.I.G.a n e 9 4 * + e.",
"p.+ % d U.U.I.I.I.s.^ P.I.I.I.I.a.R H.I.I.I.I.d.r t e 6 3 * @ b.",
"  = + | U.U.I.I.U.~ @.I.I.I.I.U.) %.I.I.I.I.I.[ n t w 6 3 @ <   ",
"  x o v.I.I.I.I.n.i Z.I.I.I.I.B.U l.I.I.I.I.C.i t t w 4 * + D   ",
"  ,.2 U.I.I.I.I...( I.I.I.I.I.+.E L.I.I.I.I.6.r e 9 6 4 * + i.  ",
"    0.I.I.I.I.L.p 8.I.I.I.I.L.I @.I.I.I.I.P.C r w 9 6 3 @ 2     ",
"    I.I.I.I.I.r.0 G.I.I.I.I.h.n B.I.I.I.I.k.e e 9 6 4 * X q.    ",
"      I.I.I.I.Z S I.I.I.I.I.{ / I.I.I.I.I.} 7 9 6 4 * + z       ",
"      I.I.I.F.; y.I.I.I.I.G.0 4.I.I.I.I.J.q 7 4 4 * + ,         ",
"        I.I.:.- L.I.I.I.I.7.6 F.I.I.I.I.r.3 4 3 * @ & c.        ",
"          I.k F I.I.I.I.I.j [ U.I.I.I.I.Z % * * + < x.          ",
"            v.V.I.I.I.I.C.@ r.I.I.I.I.V.; * @ o v               ",
"                I.I.I.I.L = K.I.I.I.I.;.. + g e.                ",
"                    I.I.l J I.I.I.I.P.c G i.                    ",
"                          P.I.I.I.I.I.                          "
};
