/* XPM */
static char *def6dacac4ce471bb4f40630a4542d27oA5veU2mWzfOjaWP[] = {
/* columns rows colors chars-per-pixel */
"16 16 125 2 ",
"   c None",
".  c #0041A6",
"X  c #0043A7",
"o  c #0045A7",
"O  c #0046A8",
"+  c #0046A9",
"@  c #0047A9",
"#  c #0048A9",
"$  c #0049A9",
"%  c #0048AA",
"&  c #0049AA",
"*  c #004BAA",
"=  c #004BAB",
"-  c #054BAA",
";  c #004CAB",
":  c #004DAC",
">  c #004EAC",
",  c #004FAC",
"<  c #014FAC",
"1  c #004EAD",
"2  c #064DAC",
"3  c #084FAC",
"4  c #0050AD",
"5  c #0051AD",
"6  c #0051AE",
"7  c #0052AE",
"8  c #0751AE",
"9  c #0D50AD",
"0  c #0C53AF",
"q  c #0E54AF",
"w  c #0B55B0",
"e  c #0E57B1",
"r  c #1059B2",
"t  c #135AB2",
"y  c #1559B1",
"u  c #155AB2",
"i  c #175BB2",
"p  c #1B5EB4",
"a  c #1F62B5",
"s  c #2063B6",
"d  c #2563B6",
"f  c #2663B6",
"g  c #376DBB",
"h  c #366EBB",
"j  c #3A69B9",
"k  c #3971BC",
"l  c #3A71BC",
"z  c #4275BE",
"x  c #4B7DC2",
"c  c #4F7DC2",
"v  c #4F7FC3",
"b  c #5580C3",
"n  c #5982C4",
"m  c #5983C5",
"M  c #5886C6",
"N  c #5C87C6",
"B  c #5F8BC9",
"V  c #6389C8",
"C  c #608BC9",
"Z  c #628AC8",
"A  c #668FCB",
"S  c #688FCB",
"D  c #6690CB",
"F  c #6A93CC",
"G  c #6E92CC",
"H  c #6E93CC",
"J  c #6B94CD",
"K  c #6F95CE",
"L  c #7196CE",
"P  c #7396CE",
"I  c #7A9DD1",
"U  c #7B9DD1",
"Y  c #7C9ED1",
"T  c #7D9FD2",
"R  c #7CA0D2",
"E  c #82A2D3",
"W  c #81A3D4",
"Q  c #87A7D6",
"!  c #86A9D7",
"~  c #89A8D6",
"^  c #8AA8D6",
"/  c #8AAAD7",
"(  c #8BAAD7",
")  c #8FABD8",
"_  c #8CACD8",
"`  c #95AFDA",
"'  c #90B0DA",
"]  c #95B1DA",
"[  c #97B3DB",
"{  c #9BB7DD",
"}  c #9EB5DD",
"|  c #9CB6DD",
" . c #9EB7DD",
".. c #9EB9DE",
"X. c #A0B9DE",
"o. c #A4BDE0",
"O. c #A7BDE0",
"+. c #ABC2E2",
"@. c #B2C6E4",
"#. c #B5C8E5",
"$. c #C2D1E9",
"%. c #C6D5EB",
"&. c #CADAEE",
"*. c #CDD9EE",
"=. c #D2DDEF",
"-. c #D8E2F1",
";. c #D9E3F2",
":. c #DAE3F2",
">. c #DEE8F4",
",. c #E0E5F3",
"<. c #E7EDF6",
"1. c #E9EEF7",
"2. c #EBF0F8",
"3. c #EDF2F9",
"4. c #F1F5FA",
"5. c #F1F6FB",
"6. c #F6F8FC",
"7. c #FAFCFD",
"8. c #FBFDFE",
"9. c #FCFCFD",
"0. c #FCFCFE",
"q. c #FCFDFE",
"w. c #FDFFFF",
"e. c #FEFFFF",
"r. c white",
/* pixels */
"              o.R               ",
"        | g e & 8 r z Q         ",
"      Z o & 7 1 7 7 & 2 J       ",
"    S X 7 7 7 7 7 7 7 7 o Q     ",
"  +.& 7 7 7 7 7 7 7 O o & 0 [   ",
"  v O 7 7 7 7 7 1 1 K } Z X D   ",
"  p 1 7 7 7 < 0 2 f r.r.J X g   ",
"_ r 1 O O & / ,.) H r.1.i & s   ",
"` e i B M d 3.r.P #.r...o < a Q ",
"  3 E r.=.G r.1.v 6.r.v & < l   ",
"  n *.r.E X.r.| I r.:.0 1 O A   ",
"  &.9.6.N 3.r.N %.r./ O 1 i ]   ",
"    r.@.P r.:.v 7.r.k & & Y     ",
"      ` $.r./ Q r.%.o - I       ",
"        >.7.V :.r.Y j {         ",
"            ..5.5.              "
};
