/* XPM */
static char *d294a235c6b94b28c717796f9813643bIEgnt7Bf7toST5T0[] = {
/* columns rows colors chars-per-pixel */
"32 32 121 2 ",
"   c None",
".  c #003DA3",
"X  c #0043A7",
"o  c #0046A8",
"O  c #0947A8",
"+  c #014BAB",
"@  c #0A4BAA",
"#  c #154EAC",
"$  c #194EAC",
"%  c #0052AE",
"&  c #0D52AE",
"*  c #1352AE",
"=  c #1A52AE",
"-  c #0F57B1",
";  c #155AB2",
":  c #1C5BB2",
">  c #235CB3",
",  c #2766B7",
"<  c #2B62B6",
"1  c #3063B6",
"2  c #3369B8",
"3  c #3B6DBB",
"4  c #3D71BC",
"5  c #4373BD",
"6  c #4B7BC1",
"7  c #527EC2",
"8  c #5180C3",
"9  c #5A84C5",
"0  c #5D88C7",
"q  c #5F8AC8",
"w  c #628BC9",
"e  c #6B8FCB",
"r  c #6B93CC",
"t  c #7295CD",
"y  c #7599CF",
"u  c #739AD0",
"i  c #7B9ED1",
"p  c #77A1D2",
"a  c #7CA1D3",
"s  c #819FD2",
"d  c #84A4D4",
"f  c #88A6D5",
"g  c #8CAAD7",
"h  c #8AACD8",
"j  c #90ADD9",
"k  c #93B0DA",
"l  c #9BB5DC",
"z  c #A1BADF",
"x  c #A5BEE0",
"c  c #A9BFE1",
"v  c #AEC3E3",
"b  c #B2C6E4",
"n  c #B6CAE6",
"m  c #BACDE7",
"M  c #BECEE8",
"N  c #BED0E9",
"B  c #C5D5EB",
"V  c #C9D3EA",
"C  c #C7D9ED",
"Z  c #CBD9ED",
"A  c #CCD9EE",
"S  c #CCDAEE",
"D  c #CDDAEE",
"F  c #CDDCEF",
"G  c #CFDEEF",
"H  c #CAD9EE",
"J  c #D0D8ED",
"K  c #D0DDEF",
"L  c #D1DDEF",
"P  c #D2DDEF",
"I  c #D0DEEF",
"U  c #D2DEEF",
"Y  c #D0DDEF",
"T  c #D2DFF0",
"R  c #D3E0F0",
"E  c #D2E0F1",
"W  c #D3E0F1",
"Q  c #D5E0F1",
"!  c #D7E1F1",
"~  c #D6E2F1",
"^  c #D6E2F1",
"/  c #D8E3F2",
"(  c #D9E5F3",
")  c #DAE5F3",
"_  c #DBE5F3",
"`  c #DCE5F3",
"'  c #DCE6F3",
"]  c #DEE8F4",
"[  c #DFE9F4",
"{  c #E0E8F4",
"}  c #E4EBF6",
"|  c #E5ECF6",
" . c #E4EDF6",
".. c #E7EFF7",
"X. c #E6EDF7",
"o. c #E8F0F8",
"O. c #E9F0F8",
"+. c #EAF1F8",
"@. c #ECF2F9",
"#. c #EEF3FA",
"$. c #E9F1F9",
"%. c #F1F5FA",
"&. c #F2F6FB",
"*. c #F3F7FB",
"=. c #F4F7FB",
"-. c #F4F8FB",
";. c #F6F9FC",
":. c #F6F9FC",
">. c #F8FAFD",
",. c #F9FBFD",
"<. c #FAFCFE",
"1. c #FAFDFE",
"2. c #FBFDFE",
"3. c #FEFDFE",
"4. c #FFFDFE",
"5. c #FDFEFE",
"6. c #FCFEFF",
"7. c #FEFEFF",
"8. c #FEFFFF",
"9. c white",
"0. c #FEFFFF",
/* pixels */
"                                                                ",
"                      U b l p r p h x n z                       ",
"                  Q d 4 & + o o o o + ; 7 x V                   ",
"                h : o + % % % % % % % + + o 3 b                 ",
"              7 X + % % % % % % % % % % % % + + d T             ",
"          { 3 X % % % % % % % % % % % % % % % % X q E           ",
"          5 X % % % % % % % % % % % % % % % % % % X t           ",
"        e X % % % % % % % % % % % % % % % % % % % + X x         ",
"      b o % % % % % % % % % % % % % % % % % % % % % + > S       ",
"      5 + % % % % % % % % % % % % % % % + + + o + % % o i       ",
"    m o % % % % % % % % % % % % % % % % & 3 3 5 3 - % + > E     ",
"    e o % % % % % % % % % % % % % % % o g 9.9.9.9.5 + % o v     ",
"    2 + % % % % % % % % % % % % % % + : { 9.9.9.E * % % o r     ",
"  U - + % % % % % % % % + + O o O + + q 9.9.9.9.f o % % + 5 U   ",
"  M + % % % % % % % % + : n V B J i . v 9.9.9.9.4 + % % + , B   ",
"  n + % % % % % % % % X d 9.9.9.9.r = #.9.9.9.B + % % % % ; B   ",
"  m + % % + o + + o + & S 9.9.9.o.* r 9.9.9.9.y X % % % % ; C   ",
"  B + % + 6 b b b v : 3 9.9.9.9.x . N 9.9.9.%.< + % % % + , C   ",
"  T & + & U 9.9.9.o.= g 9.9.9.9.6 < :.9.9.9.b + % % % % + 5 S   ",
"  ( 3 . 6 9.9.9.9.l O ) 9.9.9.' O a 9.9.9.9.w o % % % % + r n   ",
"  N u . l 9.9.9.9.5 5 9.9.9.9.j X S 9.9.9.| : % % % % % o v     ",
"    b $ ' 9.9.9.R O z 9.9.9.9.2 3 9.9.9.9.z o % % % % + > )     ",
"    Q l <.9.9.9.f # | 9.9.9.S X j 9.9.9.9.6 + % % % % X f       ",
"      <.<.9.9.6.< 9 9.9.9.9.i O ' 9.9.9.Q * + % % % + > '       ",
"        -.9.9.B X b 9.9.9.:.> 7 9.9.9.9.g o % % % % X v         ",
"        | :.9.r > =.9.9.9.m X z 9.9.9.6.4 + % % % X s '         ",
"          6.o.$ r 9.9.9.9.w * O.9.9.9.V + % % % X t {           ",
"            o.7 M 9.9.9.#.* w 9.9.9.9.i o % + O f |             ",
"              E 9.6.9.9.x . n 9.9.9.&.< . o 4 N                 ",
"                  | 6.9.7 > :.9.9.9.b @ 6 v Q                   ",
"                      U M N 9.=.&.:.H H o.                      ",
"                                                                "
};
