/* XPM */
static char *_779a1013218478bde206435a9d6239apUShFwqs1ePEmZ6x[] = {
/* columns rows colors chars-per-pixel */
"64 64 148 2 ",
"   c None",
".  c #002E9D",
"X  c #0037A1",
"o  c #003DA4",
"O  c #0042A6",
"+  c #0046A8",
"@  c #0A47A9",
"#  c #004BAB",
"$  c #0B4CAB",
"%  c #124DAB",
"&  c #0052AE",
"*  c #0C53AE",
"=  c #1452AE",
"-  c #1F54AF",
";  c #1457B0",
":  c #1D57B0",
">  c #145AB1",
",  c #1B5CB2",
"<  c #2155AF",
"1  c #2057B0",
"2  c #235BB2",
"3  c #2A5FB4",
"4  c #2363B6",
"5  c #2C62B5",
"6  c #2967B8",
"7  c #2E6AB9",
"8  c #3466B6",
"9  c #356CBA",
"0  c #3A6EBB",
"q  c #3270BC",
"w  c #3C73BD",
"e  c #426EBB",
"r  c #4375BE",
"t  c #4976BE",
"y  c #457ABF",
"u  c #467BC1",
"i  c #4C7CC1",
"p  c #547EC2",
"a  c #4F82C4",
"s  c #5482C4",
"d  c #5B84C5",
"f  c #5689C7",
"g  c #5B89C7",
"h  c #5E8DCA",
"j  c #6186C6",
"k  c #648DC9",
"l  c #6B8DC9",
"z  c #6694CD",
"x  c #6D94CD",
"c  c #7295CD",
"v  c #7399CF",
"b  c #7B99CF",
"n  c #759CD0",
"m  c #7A9ED2",
"M  c #76A1D3",
"N  c #7EA3D4",
"B  c #84A4D4",
"V  c #89A6D5",
"C  c #86AAD7",
"Z  c #8BA9D7",
"A  c #8BACD8",
"S  c #92ADD9",
"D  c #95B3DB",
"F  c #9DB4DC",
"G  c #9FBADE",
"H  c #A2B6DD",
"J  c #A4BADF",
"K  c #A2BEE0",
"L  c #A3C0E1",
"P  c #ACC3E3",
"I  c #B2C6E4",
"U  c #B3CAE6",
"Y  c #BBCBE7",
"T  c #B6CFE9",
"R  c #B9CEE8",
"E  c #BDD2EA",
"W  c #C2D4EB",
"Q  c #C9D7EC",
"!  c #C6D9ED",
"~  c #CCDDEF",
"^  c #CEDCEF",
"/  c #CDDEEF",
"(  c #CBDBEE",
")  c #D1DEEF",
"_  c #D2DFEF",
"`  c #CDDEF0",
"'  c #CFDFF0",
"]  c #D2DFF0",
"[  c #D0E0F0",
"{  c #D2E1F1",
"}  c #D3E2F1",
"|  c #D7E5F2",
" . c #D3E1F1",
".. c #DAE6F4",
"X. c #DAE5F3",
"o. c #DCE8F4",
"O. c #DDE8F4",
"+. c #DEEAF5",
"@. c #DFEAF5",
"#. c #DEE9F4",
"$. c #E3EAF5",
"%. c #E2EBF5",
"&. c #E4EDF7",
"*. c #E4EEF7",
"=. c #E5EEF7",
"-. c #E7EEF7",
";. c #E6EFF7",
":. c #E3ECF6",
">. c #E9EFF7",
",. c #E6EFF8",
"<. c #E7EFF8",
"1. c #E8EEF8",
"2. c #E9F0F7",
"3. c #E7F0F8",
"4. c #E7F0F8",
"5. c #E9F1F8",
"6. c #EAF1F9",
"7. c #EAF2F9",
"8. c #ECF3F9",
"9. c #EDF3FA",
"0. c #EFF3FA",
"q. c #EDF4FA",
"w. c #EFF4FA",
"e. c #ECF2F9",
"r. c #F0F5FB",
"t. c #F1F7FB",
"y. c #F2F6FB",
"u. c #F3F6FB",
"i. c #F2F7FB",
"p. c #F3F7FB",
"a. c #F2F6FB",
"s. c #F2F8FC",
"d. c #F3F8FC",
"f. c #F5F8FC",
"g. c #F6F9FC",
"h. c #F7FAFD",
"j. c #F7FBFD",
"k. c #F5F9FC",
"l. c #F8F9FC",
"z. c #F8FBFD",
"x. c #FAFBFD",
"c. c #F8FCFD",
"v. c #FAFCFE",
"b. c #FBFCFE",
"n. c #FAFDFE",
"m. c #FEFFFF",
"M. c white",
"N. c #FFFFFF",
/* pixels */
"                                                                                                                                ",
"                                                                Y Y                                                             ",
"                                                  >.d.5.o.` W W ' } @.3.r.9.*.U                                                 ",
"                                            M.j.W S b s 7 , * & * * 4 w l B L *.M.r.                                            ",
"                                      5.v.] n 0 > O o + # # # # # # # + O o # 5 p K w.x.                                        ",
"                                    d.R i % + + # & & & & & & & & & & & & & & + O # 2 C %.M.W                                   ",
"                                M.W s O + # # & & & & & & & & & & & & & & & & & & # # o 2 C j.x.                                ",
"                              3.m = o & & & & & & & & & & & & & & & & & & & & & & & & & + O 9 Y M.!                             ",
"                            ^ 9 O # & & & & & & & & & & & & & & & & & & & & & & & & & & & & O $ Z v.j.                          ",
"                        M.Y < O & & & & & & & & & & & & & & & & & & & & & & & & & & & & & & & # o s =.w.                        ",
"                      M.F % O & & & & & & & & & & & & & & & & # & & & & & & & & & & & & & & & & # O w @.t.                      ",
"                    M.F @ # & & & & & & & & & & & & & & & & & & & & & & & & & & & & & & & & & & & & O 9 @.u.                    ",
"                  N.I % # & & & & & & & & & & & & & & & & & & & & & & & & & & & & & & & & & & & & & & O r 5.                    ",
"                  ( < + & & & & & # & & & & & & & & & & & & & & & & & & & & & & & & & & & & & & & & & & o x M.                  ",
"                =.9 O & & & & & & & & & & & & & & & & & & & & & & & & & & & & & & & & & & & & & & & & & # O D M.                ",
"              M.c o & & & & & & & & & & & & & & & & & & & & & & & & & & & & & & & & & # & & & & & & & & & # = ( M.              ",
"            M.I $ # & & & & & & & & & & & & & & & & & & & & & & & & & & & & & & & & & & & & & & & & & & & & O s M.Q             ",
"            t.r O & & & & & & & & & & & & & & & & & & & & & & & & & & & & & & & & & & & & & & & & & & & & & & O G M.            ",
"          M.J O # & & & & & & & & & & & & & & & & & & & & & & & & & & & & & & & & & & & & & & & & & & & & & & O 9 w.            ",
"          w.9 + & & & & & & & & & & & & & & & & & & & & & & & & & # & & & & & & & & & & & & & & & & & & & & & & O J M.          ",
"          P $ # & & & & & & & & & & & & & & & & & & & & & & & & & & & & & & & & & # O o o o o o o O # & & & & & O w j.          ",
"        M.s O & & & & & & & & & & & & & & & & & & & & & & & & & & & & & & & & & # 2 k x l l l l l l 4 # & & & & # % ( x.        ",
"        | 3 + & & & & & & & & & & & & & & & & & & & & & & & & & & & & & & & & # 2 W M.M.M.M.M.M.M.M.m O & & & & & + z M.        ",
"        D # & & & & & & & & & & & & & & & & & & & & & & & # & & & & & & & & & O k M.M.M.M.M.M.M.M.M.c o & & & & & O e M._       ",
"      M.b o & & & & & & & & & & & & & & & & & & & & & & & & & & & & & & & & # = W M.M.M.M.M.M.M.M.^ 4 # & & & & & # ; ! >.      ",
"      =.w + & & & & & & & & & & & # & & & & & & & & & & & & & & & & & & & & + 9 t.M.M.M.M.M.M.M.M.J o & & & & & & & O S x.      ",
"      ( ; # & & & & & & & & & & & & & & & & & & & & & & & & & # & & & & & & + A M.M.M.M.M.M.M.M.w.a O & & & & & & & o m M.      ",
"      Y O # & & & & & & & & & & & & & & & & & & & # O o o o o o o o o # & # % ( M.M.M.M.M.M.M.M.^ = # & & & & & & & + d M.      ",
"    M.K O & & & & & & # & & & & & & & & & & & & & # z H H F F F F H S 4 # + s t.M.M.M.M.M.M.M.M.C O & & & & & & & & + w 8.W     ",
"    M.D O & & & & & & & & & & & & & & & & & & & O g x.M.M.M.M.M.M.M.M.j o O S M.M.M.M.M.M.M.M.g.0 O & & & & & & & & # 4 @.`     ",
"    M.N O & & & & & & & & & & & & & & & & & & # ; W M.M.M.M.M.M.M.M.[ 4 o 4 } M.M.M.M.M.M.M.M.R = # & & & & & & & & # > [ @.    ",
"    M.m + & & & & & & & & & & & & & & & & & & + 0 f.M.M.M.M.M.M.M.M.F o O d M.M.M.M.M.M.M.M.M.v O & & & & & & & & & # * ~ =.    ",
"    M.n + & & & & & & & & & & & & & & & & & & + A M.M.M.M.M.M.M.M.t.s o # K M.M.M.M.M.M.M.M.*.9 O & & & & & & & & & # * ' 3.    ",
"    M.B + & & & & & & # O O + O + O O O # & # = ] M.M.M.M.M.M.M.M.( $ O 5 >.M.M.M.M.M.M.M.M.P O & & & & & & & & & & # > } @.    ",
"    M.D O & & & & & + 6 x v x x x x v k > & O s t.M.M.M.M.M.M.M.M.C + O z M.M.M.M.M.M.M.M.v.x O & & & & & & & & & & # 4 @.|     ",
"    M.P o & & & & O 9 [ M.M.M.M.M.M.M.M.s O O H M.M.M.M.M.M.M.M.t.8 O @ W M.M.M.M.M.M.M.M.X.: # & & & & & & & & & & O w q.!     ",
"    M.R O # & & # + A M.M.M.M.M.M.M.M.v.i X 4 [ M.M.M.M.M.M.M.M.E = O 9 %.M.M.M.M.M.M.M.M.K + # & & & & & & & & & & O g M.Y     ",
"    2.^ ; # & & # 3 @.M.M.M.M.M.M.M.M.I * X j M.M.M.M.M.M.M.M.M.z O o V M.M.M.M.M.M.M.M.M.i + & & & & & & & & & & & o b M.      ",
"    ( t.u + & & + s M.M.M.M.M.M.M.M.M.B o $ K M.M.M.M.M.M.M.M.=.9 o * Y M.M.M.M.M.M.M.M.] : # & & & & & & & & & & & O S M.      ",
"    U M.c O & # @ P M.M.M.M.M.M.M.M.@.7 o 5 8.M.M.M.M.M.M.M.M.K + o i x.M.M.M.M.M.M.M.M.B + & & & & & & & & & & & # , ! t.      ",
"      M.F + & # 2 =.M.M.M.M.M.M.M.M.U O O z M.M.M.M.M.M.M.M.M.x o + B M.M.M.M.M.M.M.M.j.i O & & & & & & & & & & & + e M.|       ",
"      8.@.4 O O v M.M.M.M.M.M.M.M.v.k o @ Q M.M.M.M.M.M.M.M.} > O 2 | M.M.M.M.M.M.M.M.R $ # & & & & & & & & & & & + v M.K       ",
"        M.d O # U M.M.M.M.M.M.M.M.%.2 o q =.M.M.M.M.M.M.M.M.J O + u j.M.M.M.M.M.M.M.M.B o & & & & & & & & & & & # % Q M.        ",
"        M.W X 0 2.M.M.M.M.M.M.M.M.D # o Z M.M.M.M.M.M.M.M.j.y O O P M.M.M.M.M.M.M.M.%.6 # & & & & & & & & & & & + u x...        ",
"          t.5 x M.M.M.M.M.M.M.M.M.p o = W M.M.M.M.M.M.M.M.[ - O , | M.M.M.M.M.M.M.M.Y $ # & & & & & & & & & & & O P M.          ",
"          M.R I M.M.M.M.M.M.M.M.( , X s v.M.M.M.M.M.M.M.M.N + o c M.M.M.M.M.M.M.M.M.k O & & & & & & & & & & & O t t.*.          ",
"            M.t.M.M.M.M.M.M.M.M.A o O C M.M.M.M.M.M.M.M.j.t o # P M.M.M.M.M.M.M.M.,.3 # & & & & & & & & & & # + P M.            ",
"            M.8.t.M.M.M.M.M.M.5.i o 2 | M.M.M.M.M.M.M.M.I * O 0 ,.M.M.M.M.M.M.M.M.D # # & & & & & & & & & & o s M.@.            ",
"              M.>.x.M.M.M.M.M.W $ O i v.M.M.M.M.M.M.M.M.B o O x M.M.M.M.M.M.M.M.M.d O & & & & & & & & & & + 2 } M.              ",
"              v.t.>.M.M.M.M.M.N o + P M.M.M.M.M.M.M.M.@.6 O = W M.M.M.M.M.M.M.M.( , # & & & & & & & & & # O D M.Y               ",
"                M.w.8.M.M.M.>.5 o , O.M.M.M.M.M.M.M.M.Y @ O 9 t.M.M.M.M.M.M.M.M.F o & & & & & & & & & & o v M.>.                ",
"                  M.8.t.M.M.U $ o v M.M.M.M.M.M.M.M.v.h O O A M.M.M.M.M.M.M.M.5.y O & & & & & & & & & o j x.M.                  ",
"                    M.5.g.M.j O + I M.M.M.M.M.M.M.M.*.2 O % ( M.M.M.M.M.M.M.M.( $ # & & & & & & & # o t u.M.                    ",
"                      M.x.[ 2 o w ,.M.M.M.M.M.M.M.M.F # O s t.M.M.M.M.M.M.M.M.N + & & & & & & & # o d 8.M.                      ",
"                        M.E , . n M.M.M.M.M.M.M.M.M.s O O F M.M.M.M.M.M.M.M.t.8 + & & & & & & # O c g.M.                        ",
"                          M.R t I M.M.M.M.M.M.M.M.! , o 4 ^ M.M.M.M.M.M.M.M.I * # & & & & # O = A M.M.                          ",
"                            M.t.>.t.M.M.M.M.M.M.M.S O o j M.M.M.M.M.M.M.M.M.l O & & & & O O t W M.d.                            ",
"                              t.M.w.5.f.M.M.M.M.q.u o $ J M.M.M.M.M.M.M.M.@.7 + & & + O 5 D d.M.                                ",
"                                  M.M.8.>.t.M.M.W + O 5 2.M.M.M.M.M.M.M.M.J o # O O 9 A 5.M.5.                                  ",
"                                    } j.M.r.>.v.B o X z M.M.M.M.M.M.M.M.t.d o - f P >.M.w.                                      ",
"                                        O.=.M.M.) A s Q M.u.u.u.g.u.u.x.O.n P =.v.M.X.                                          ",
"                                              E x.M.M.x.u.t.8.t.w.w.w.t.M.M.M.                                                  ",
"                                                      W O.r.M.M.M.                                                              ",
"                                                                                                                                "
};
