/* XPM */
static char *aa5f763f1b1045c08bad621e8862571ep1PhL7fyCC1DVDSf[] = {
/* columns rows colors chars-per-pixel */
"16 16 167 2 ",
"   c None",
".  c #004593",
"X  c #004494",
"o  c #014795",
"O  c #004696",
"+  c #004895",
"@  c #004897",
"#  c #004997",
"$  c #024996",
"%  c #094993",
"&  c #0A4B95",
"*  c #0D4C94",
"=  c #004498",
"-  c #004999",
";  c #004B99",
":  c #004B9A",
">  c #004C9C",
",  c #004D9C",
"<  c #004D9D",
"1  c #004E9C",
"2  c #004F9D",
"3  c #01519F",
"4  c #0051A1",
"5  c #0053A0",
"6  c #0053A2",
"7  c #0054A1",
"8  c #0055A1",
"9  c #0055A4",
"0  c #005AA6",
"q  c #0058AA",
"w  c #005DA9",
"e  c #005FAB",
"r  c #005CAF",
"t  c #005FAE",
"y  c #005EAF",
"u  c #0061AC",
"i  c #0060AD",
"p  c #0062AF",
"a  c #0963AF",
"s  c #0061B1",
"d  c #0164B0",
"f  c #0266B2",
"g  c #0266B3",
"h  c #0062B4",
"j  c #0063B4",
"k  c #0265B4",
"l  c #0168B5",
"z  c #0268B5",
"x  c #0B68B0",
"c  c #0068BB",
"v  c #006CBB",
"b  c #026CBC",
"n  c #026DBC",
"m  c #026FBF",
"M  c #0E72BD",
"N  c #1472BB",
"B  c #2261A3",
"V  c #2661A2",
"C  c #2B62A2",
"Z  c #2E67A4",
"A  c #2F67A5",
"S  c #3165A4",
"D  c #3068A6",
"F  c #3C6EA8",
"G  c #2A72B3",
"H  c #4270A8",
"J  c #4573AA",
"K  c #4675AC",
"L  c #4B78AD",
"P  c #4D7BAF",
"I  c #427FB6",
"U  c #006AC1",
"Y  c #0372C0",
"T  c #0272C3",
"R  c #0372C4",
"E  c #0276C6",
"W  c #0376C6",
"Q  c #0277C8",
"!  c #0278C8",
"~  c #0378C9",
"^  c #0078D1",
"/  c #027ED0",
"(  c #037ED0",
")  c #037FD1",
"_  c #5C87B6",
"`  c #5D89B5",
"'  c #6D8FB5",
"]  c #638BB8",
"[  c #618CB9",
"{  c #638CB8",
"}  c #7196BF",
"|  c #7C9BBF",
" . c #0381D3",
".. c #0382D3",
"X. c #0383D4",
"o. c #0081D8",
"O. c #0087DA",
"+. c #0088DC",
"@. c #0089DE",
"#. c #008ADE",
"$. c #0D8DDA",
"%. c #1795DF",
"&. c #2781C4",
"*. c #1A98E0",
"=. c #279FE5",
"-. c #2EA1E4",
";. c #5392C6",
":. c #599ACB",
">. c #5C9FD1",
",. c #779AC1",
"<. c #4EA1DA",
"1. c #50A7DF",
"2. c #71A4CE",
"3. c #6AA6D2",
"4. c #77ACD6",
"5. c #70ADD8",
"6. c #71B0DC",
"7. c #57AEE3",
"8. c #61B6E5",
"9. c #72B6E2",
"0. c #83A2C6",
"q. c #8CA9CA",
"w. c #88ABCC",
"e. c #84ADD3",
"r. c #9ABDDA",
"t. c #A3B7D1",
"y. c #A2B8D1",
"u. c #A8BCD5",
"i. c #AABDD6",
"p. c #82BCE2",
"a. c #AFC0D5",
"s. c #A2C1DC",
"d. c #ACC5DE",
"f. c #86C7EC",
"g. c #9BC8E7",
"h. c #A9CEE7",
"j. c #B2D3E9",
"k. c #B9D7ED",
"l. c #B7DAEF",
"z. c #A2D4F0",
"x. c #C7D3E2",
"c. c #CFD8E4",
"v. c #CFDCE9",
"b. c #CFDFED",
"n. c #D2E2EE",
"m. c #D7E5EE",
"M. c #C4E3F3",
"N. c #D0E7F4",
"B. c #DEECF5",
"V. c #E2ECF3",
"C. c #E5EEF5",
"Z. c #EBEFF3",
"A. c #EDF2F6",
"S. c #E6F2F8",
"D. c #E8F1F8",
"F. c #E8F4FA",
"G. c #F3F8FA",
"H. c #F6F8FA",
"J. c #F5FAFD",
"K. c #F6FAFC",
"L. c #FBFBFD",
"P. c #F9FCFD",
"I. c #FDFDFD",
"U. c #FFFDFC",
"Y. c #FDFEFF",
"T. c #FEFFFE",
"R. c white",
/* pixels */
"            ` A A [             ",
"        C + 2 5 5 2 ; S         ",
"    0.+ 8 u d z k d u 5 ; q.    ",
"  i.. 0 g b R W Q T b k 9 O     ",
"  V 5 d T ~ /  .../ Q M x 3 S   ",
"i.O e b W  .#.#.#.o.p.V.m.G O   ",
"] ; d T / O.*.-.=.*.S.R.n.a ; } ",
"J 2 y U ^ $.N.P.M.8.R.R.4.r 2 L ",
"K ; ;.5.<.1.R.R.f.z.R.G.&.s 2 P ",
"[ B R.R.h.g.R.K.7.S.R.j.c u ; ,.",
"t.| R.R.3.B.R.l.9.R.R.>.s w O   ",
"  Z.R.b.2.R.R.6.k.R.C.N y 2 F   ",
"    R.w.d.R.D.:.K.R.r.q 5 &     ",
"    H.' A.R.s.e.R.R.I = * t.    ",
"        R.L._ v.R.x.& H         ",
"            i.R.R.c.            "
};
