/* XPM */
static char *f118a41ddc97471bb04a816b49c02bbc7XC2Rpg0xLwIBlAV[] = {
/* columns rows colors chars-per-pixel */
"64 64 202 2 ",
"   c None",
".  c #002E7A",
"X  c #00317D",
"o  c #194779",
"O  c #003D84",
"+  c #003D8A",
"@  c #003F91",
"#  c #01438D",
"$  c #0A468A",
"%  c #04498E",
"&  c #0C4B8D",
"*  c #004086",
"=  c #134B88",
"-  c #1E528A",
";  c #004493",
":  c #024C95",
">  c #0D4D93",
",  c #014D9B",
"<  c #00469A",
"1  c #124E91",
"2  c #025197",
"3  c #02539C",
"4  c #0D5A9C",
"5  c #1E5493",
"6  c #1C5B99",
"7  c #145797",
"8  c #2C5B8F",
"9  c #245994",
"0  c #2C5D96",
"q  c #255D98",
"w  c #2D5F9A",
"e  c #255594",
"r  c #305F99",
"t  c #2D639E",
"y  c #3E6A9E",
"u  c #31669B",
"i  c #004CA1",
"p  c #0256A2",
"a  c #015AA4",
"s  c #0054AC",
"d  c #015DAA",
"f  c #0B5EA8",
"g  c #005CB4",
"h  c #0162AD",
"j  c #0667AA",
"k  c #1668A7",
"l  c #0165B2",
"z  c #0269B5",
"x  c #0266BA",
"c  c #026CBB",
"v  c #0472BD",
"b  c #0D75BB",
"n  c #1978B7",
"m  c #2768A4",
"M  c #346BA2",
"N  c #3C6BA2",
"B  c #3779AC",
"V  c #2579B6",
"C  c #436D9E",
"Z  c #4F759C",
"A  c #627A94",
"S  c #406EA3",
"D  c #4572A4",
"F  c #4B74A5",
"G  c #4A77AA",
"H  c #4E7AAC",
"J  c #5C7EA5",
"K  c #547CAB",
"L  c #5379A5",
"P  c #457FB2",
"I  c #026EC1",
"U  c #0273C4",
"Y  c #0379C6",
"T  c #0275C9",
"R  c #027BCB",
"E  c #107AC3",
"W  c #027ED2",
"Q  c #3686BB",
"!  c #4A84AF",
"~  c #5F82A9",
"^  c #5B88AF",
"/  c #4C84B4",
"(  c #5F83B1",
")  c #5C93BB",
"_  c #6085AC",
"`  c #6A89AD",
"'  c #728EAE",
"]  c #7B91AC",
"[  c #6A8DB4",
"{  c #678DB6",
"}  c #708FB1",
"|  c #6B92B5",
" . c #7797BB",
".. c #0B87CD",
"X. c #1B89C9",
"o. c #0383D4",
"O. c #0886D3",
"+. c #0489D6",
"@. c #098BD2",
"#. c #0286D9",
"$. c #038BDD",
"%. c #0190DE",
"&. c #1493D6",
"*. c #1089D6",
"=. c #298ECC",
"-. c #398CC3",
";. c #2696D4",
":. c #2198D7",
">. c #3C9ED5",
",. c #359CD5",
"<. c #2F91CA",
"1. c #3DA0D4",
"2. c #0185E3",
"3. c #018EE2",
"4. c #008FEB",
"5. c #0392E3",
"6. c #0394EA",
"7. c #438EC0",
"8. c #5697C5",
"9. c #419FD6",
"0. c #4995C9",
"q. c #679EC7",
"w. c #719FC3",
"e. c #789AC1",
"r. c #5CA5CF",
"t. c #4CA5D9",
"y. c #5AA7D4",
"u. c #52ABDD",
"i. c #61A0CA",
"p. c #76A8CB",
"a. c #7AA3C4",
"s. c #61A9D6",
"d. c #6FA9D0",
"f. c #6EB6DE",
"g. c #6AB6DE",
"h. c #71B7DC",
"j. c #73B9DF",
"k. c #7AB6D7",
"l. c #6FB8E0",
"z. c #839EBD",
"x. c #819AB5",
"c. c #8BA5BE",
"v. c #A1AEBC",
"b. c #86A8C7",
"n. c #93AAC5",
"m. c #9AAEC5",
"M. c #95AEC9",
"N. c #8BB4CF",
"B. c #94B0C9",
"V. c #9BB3CC",
"C. c #89B8D6",
"Z. c #98BDD6",
"A. c #A1B6CD",
"S. c #A5BACE",
"D. c #AABBCD",
"F. c #AEBFD2",
"G. c #A3BBD2",
"H. c #86C1DF",
"J. c #96C3DC",
"K. c #AEC1D3",
"L. c #A4C5DB",
"P. c #A8C6DA",
"I. c #B2C2D3",
"U. c #B8C6D9",
"Y. c #B2CBDC",
"T. c #BCCCDB",
"R. c #BBC8D6",
"E. c #8FC6E4",
"W. c #92C7E5",
"Q. c #A3CAE1",
"!. c #AACCE1",
"~. c #ACD0E6",
"^. c #A8D2E9",
"/. c #BAD3E3",
"(. c #BBD9E9",
"). c #C2CFDC",
"_. c #C8D4DF",
"`. c #C4D5E3",
"'. c #CBD5E2",
"]. c #C4DAE7",
"[. c #CDDAE3",
"{. c #C5DEEB",
"}. c #D3DCE5",
"|. c #D3DFE9",
" X c #D9DFE6",
".X c #CBE1EB",
"XX c #D6E5ED",
"oX c #DCE4EB",
"OX c #DBE1E7",
"+X c #DDEBF3",
"@X c #D9E8F1",
"#X c #E1E7ED",
"$X c #E4E9EE",
"%X c #E3ECF1",
"&X c #EAEEF1",
"*X c #ECF2F5",
"=X c #EBF3F6",
"-X c #F2F4F6",
";X c #F5F7F8",
":X c #F6F9F9",
">X c #FFFFFF",
",X c #F8F7F8",
/* pixels */
"                                                        [.U.V.n.n.V.T. X                                                        ",
"                                                '.V.{ D t 6 7 > > 7 6 u G  .G.}.                                                ",
"                                          U.[ w ; # # ; : < 2 2 i , , < < ; # > M e.`.                                          ",
"                                    &Xb.m + ; < , 3 2 2 3 3 3 3 3 3 3 3 3 2 2 < ; # # D A.                                      ",
"                                &Xz.5 @ ; 2 2 3 3 2 3 3 3 3 3 3 3 3 3 3 3 3 3 3 3 3 : ; + r V.                                  ",
"                              A.9 # , 3 3 3 3 3 3 p p p a a p p a a a p p 3 a 3 3 3 3 2 3 < + N T.                              ",
"                          #XK # : 3 3 2 3 p 3 h a a a d a d a a a h a h a p h 3 p p 3 3 3 3 2 < ;  .                            ",
"                        R.9 # , 2 3 3 3 p p 3 a a d d d h d h h h a d h h d d h d d d 3 3 3 3 3 , ; N |.                        ",
"                      M.$ : : 2 3 3 a 3 h a h a h h h h h h h h h h h h g f l d a d d p p p p i p 2 # 5 T.                      ",
"                    z.+ < 2 2 3 p 3 a h 3 h h h h h h l z l z h h z h z l l l g l d d d d p p p p 3 2 # $ G.                    ",
"                  z.+ , p p p p p p d d h h j h l z z z z z z z z z z z z z l l l d l a d d f a p p 3 2 : $ F.                  ",
"                m.+ , 3 2 2 p a a d d h l l l z z z c z c c c c z c v c z c z z x l l l g d d a a p p 3 : < > ).                ",
"              ).$ : 3 2 2 3 a d h h h l l z z c c c I U U U I U U v U U c v c c z z z x l g d d d d p p 3 3 ; 9 $X              ",
"            &X0 < 3 3 3 p a d d h h h z z c c c c U U U U U U T Y U U U U v v c c c c c z l l d d p p p p 2 , ; G               ",
"            _ + 3 2 3 p d f d l h l z z c c c U U U U U U R U R R U U U U v v v v c c c z z x h d d p s p 3 p , O c.            ",
"          F.O : , p p p d d h h l z c c c v U U U U R U Y Y R R Y R R R R U Y Y U U v c c z z l h d d a p p 3 , % = |.          ",
"        -Xm ; : 3 p a a h h h l z c c c U U U R T R R R R R R R R o.R W R R Y R R U U U c c z z l h h a a p 3 p p + K           ",
"        n.; p , 3 p a h h h z z z c U U U U T R O.R R o.o.o.o.o.o.o.o.o.W R R R R U U U U I c c z l h d d a p p p , ; T.        ",
"      -X0 ; 3 3 3 p d d h l z z v c U U U T R R R o.o.o.o.o.o.+.o.o.o.o.o.O.W R Y R U T T U I c z l l h d d p 3 p 3 ; H         ",
"      V.+ > i p 4 d d h h z z c c U U U U R R W W o.#.#.o.#.#.#.#.#.o.#.o.o.O.W #.R T v z z l h h h a p d d a p 3 2 : $ [.      ",
"    >XN ; 3 p p a a d h l l c I I U Y R R R o.o.o.#.#.O.$.+.#.#.#.$.#.#.#.$.O.W 2.U r././.T.Y.Y.Y.I.K.Z.! p d p 3 2 2 # [       ",
"    _.$ < , i p a d h l l c c U U U R Y R o.o.o.#.O.#.3.3.$.%.$.$.$.$.$.$.$.O.W W -.-X>X>X>X>X>X>X>X>X>XOXk d p p 3 3 < q &X    ",
"    z.+ 3 , p a d d j l z c I U U R Y R o.o.o.o.*.3.$.$.$.$.$.%.$.5.5.$.$.$.#.#.Y Z.>X>X>X>X>X>X>X>X>X>XG.p h d d 3 3 i + I.    ",
"  >XS ; , p p a a d h l x I I U U R R R o.o.#.#.$.$.$.$.5.5.5.%.5.$.%.%.5.$.$.#.X.$X>X>X>X>X>X>X>X>X>X>X/ d h d d 3 3 p @ [     ",
"  oX1 < 3 p p a d h h l c I U U Y R R W #.#.#.2.$.5.$.5.5.5.5.%.5.5.5.5.%.5.$.#.y.>X>X>X>X>X>X>X>X>X>XOXk l d d a 3 3 3 : t :X  ",
"  F.* , 2 3 p d h h l z c c U T R R W o.#.#.$.O.$.5.5.5.5.5.5.6.5.6.5.5.5.5.5.o.~.>X>X>X>X>X>X>X>X>X>Xb.d l l d a p 3 3 , & oX  ",
"  z.+ 3 2 p p a h h l z v U U T R R o.o.O.#.$.$.%.5.$.$.$.$.$.%.%.5.$.5.6.5.$.;.-X>X>X>X>X>X>X>X>X>X,XB g l h h a 3 3 3 , # I.  ",
">X~ # 2 3 p a d h h z z c U U T R R W o.#.@.$.3.$.,.g.f.f.l.f.h.j.j.j.t.5.5.+.h.>X>X>X>X>X>X>X>X>X>XT.h I l l h h p a 3 , * n.  ",
">XC # , 2 p a d h h z z c U U T R W o.#.O.+.$.3.=.+X>X>X>X>X>X>X>X>X>X=X;.5....X>X>X>X>X>X>X>X>X>X>Xq.l c l l d a a p , , # [ >X",
",Xr : 2 3 p a a h h z z c U T T R W W #.#.*.5.#.k.>X>X>X>X>X>X>X>X>X>X@X&.%.1.:X>X>X>X>X>X>X>X>X>X=Xn x z z h h h p p 3 , # J -X",
"-X9 ; , 3 p p a h h h z c U U Y R W O.O.#.$.3.O..X>X>X>X>X>X>X>X>X>X>XH.$.3.E.>X>X>X>X>X>X>X>X>X>XP.h I c z h h a a p 3 2 ; F $X",
"-X5 < 3 3 3 a h l l z c v U T R R o.W o.@.3.$.9.>X>X>X>X>X>X>X>X>X>X:X,.6.&.+X>X>X>X>X>X>X>X>X>X>X) c c z z h h h p p p 2 + D $X",
"*Xe < 2 3 3 d d l x x c v U U R W W W #.#.$.o.W.>X>X>X>X>X>X>X>X>X>X(.@.6.u.>X>X>X>X>X>X>X>X>X>XoXk T I z z h h d p 3 3 3 ; F $X",
",X0 ; 2 2 p d d d d d d h l z c U v Y $.#.$.X.+X>X>X>X>X>X>X>X>X>X>Xl.3.3.^.>X>X>X>X>X>X>X>X>X>XN.c U U z z h h h a p 3 2 ; K &X",
">Xy ; 2 3 p d p 4 w.L.L.L.L.Q.Q.Q.!.J.=.#.#.y.>X>X>X>X>X>X>X>X>X>X=X:.5.;.=X>X>X>X>X>X>X>X>X>X:XQ I U c z h h h d p 3 4 2 + _ ;X",
">XK ; 2 3 a a : B.>X>X>X>X>X>X>X>X>X>XC.Y o.~.>X>X>X>X>X>X>X>X>X>X^.$.$.l.>X>X>X>X>X>X>X>X>X>X].j U U c x l l h d 3 p 3 2 @  .  ",
"  } ; 2 3 p p m &X>X>X>X>X>X>X>X>X>X>Xr.W =.*X>X>X>X>X>X>X>X>X>X>Xu.5...(.>X>X>X>X>X>X>X>X>X>Xs.c U U z x h h d a p p 2 i ; A.  ",
"  A.# , 3 s , { >X>X>X>X>X>X>X>X>X>X@Xn W h.>X>X>X>X>X>X>X>X>X>X+X&.3.,.>X>X>X>X>X>X>X>X>X>X=XQ U U I z z l l d a p 3 3 , $ ).  ",
"  '.$ : 3 p : R.>X>X>X>X>X>X>X>X>X>XZ.U R {.>X>X>X>X>X>X>X>X>X>XE.$.2.E.>X>X>X>X>X>X>X>X>X>XP.c U I c z l h h a a p 3 2 ; 5 &X  ",
"  -X9 # , 2 u ,X>X>X>X>X>X>X>X>X>X>X-.T -.>X>X>X>X>X>X>X>X>X>X>X>.2.@.XX>X>X>X>X>X>X>X>X>X>X8.I U c c z l h h a a 3 2 2 ; Z     ",
"  >X_ * : # a.>X>X>X>X>X>X>X>X>X>X].c U C.>X>X>X>X>X>X>X>X>X>X.X..2.t.>X>X>X>X>X>X>X>X>X>X@Xb U U v c z h h h a p 3 2 3 + c.    ",
"    S.O : & _.>X>X>X>X>X>X>X>X>X>Xp.c E +X>X>X>X>X>X>X>X>X>X>Xk.W o.Q.>X>X>X>X>X>X>X>X>X>XZ.c v c c z z l h h a p 3 2 : : }.    ",
"    &X- # y >X>X>X>X>X>X>X>X>X>X-XV x 8.>X>X>X>X>X>X>X>X>X>X-X=.#.X.&X>X>X>X>X>X>X>X>X>X>X7.I c z z z l h a a p p 3 3 ; y >X    ",
"    >X[ X n.>X>X>X>X>X>X>X>X>X>XY.l x Q.>X>X>X>X>X>X>X>X>X>X/.Y W s.>X>X>X>X>X>X>X>X>X>X].k I c z z l h d d a p 3 3 3 * m.      ",
"      _.o oX>X>X>X>X>X>X>X>X>X>X8.l n =X>X>X>X>X>X>X>X>X>X>Xy.W Y (.>X>X>X>X>X>X>X>X>X>Xp.h c U z h h h d d p p 3 2 ; 5 &X      ",
"      ,Xv.,X>X>X>X>X>X>X>X>X>X+Xk x q.>X>X>X>X>X>X>X>X>X>X%XX.W <.;X>X>X>X>X>X>X>X>X>X;XV c c z z z h h d a p 3 , , O z.        ",
"        >X>X>X>X>X>X>X>X>X>X>XV.p l /.>X>X>X>X>X>X>X>X>X>XZ.I T k.>X>X>X>X>X>X>X>X>X>XT.l I I h l h h a a p p 3 , ; e &X        ",
"        >X>X>X>X>X>X>X>X>X>X>X! s B ,X>X>X>X>X>X>X>X>X>X>X0.U Y }.>X>X>X>X>X>X>X>X>X>X) l x l x h d h a a p 2 2 , O M.          ",
"          >X>X>X>X>X>X>X>X>X[.4 s b.>X>X>X>X>X>X>X>X>X>XXXb I / >X>X>X>X>X>X>X>X>X>X$Xm x x l l h h a a p 3 3 3 ; C ,X          ",
"            >X>X>X>X>X>X>X>Xa.< d |.>X>X>X>X>X>X>X>X>X>XN.l c Z.>X>X>X>X>X>X>X>X>X>XS.a c l d d d a a p p , 2 , & [.            ",
"            >X>X>X>X>X>X>X,Xu , / >X>X>X>X>X>X>X>X>X>X,XQ l n %X>X>X>X>X>X>X>X>X>X>X! d x h d d d a p 3 3 2 , O m.              ",
"              >X>X>X>X>X>XT.% , V.>X>X>X>X>X>X>X>X>X>X].x d ) >X>X>X>X>X>X>X>X>X>X}.7 g l a a d p p 3 3 2 : + ` >X              ",
"                >X>X>X>X>X` + 6 $X>X>X>X>X>X>X>X>X>X>Xa.g d Y.>X>X>X>X>X>X>X>X>X>Xb.3 l d a a a p 3 3 2 : O F ,X                ",
"                  >X>X>X&X- ; _ >X>X>X>X>X>X>X>X>X>X=Xm g V -X>X>X>X>X>X>X>X>X>X:XM a d a a p p 3 3 3 : O D -X                  ",
"                    >X>Xm.X $ I.>X>X>X>X>X>X>X>X>X>XK.p s a.>X>X>X>X>X>X>X>X>X>X).: d a a p p 3 3 3 2 O L &X                    ",
"                      >X] . u -X>X>X>X>X>X>X>X>X>X>X^ p a ].>X>X>X>X>X>X>X>X>X>X| , a 3 3 3 , 2 3 , + ' ,X                      ",
"                        -X' x.>X>X>X>X>X>X>X>X>X>X$X6 p B >X>X>X>X>X>X>X>X>X>X=Xq p p 3 2 3 : 2 * = V.                          ",
"                            ,X>X>X>X>X>X>X>X>X>X>XB.# < n.>X>X>X>X>X>X>X>X>X>XS.* p 3 2 2 2 ; O F  X                            ",
"                              >X>X>X>X>X>X>X>X>X:XD : 7 oX>X>X>X>X>X>X>X>X>X>XZ ; , 2 , , + 0 A.>X                              ",
"                                  >X>X>X>X>X>X>X[.& # L >X>X>X>X>X>X>X>X>X>X X= i , * + r n.-X                                  ",
"                                      >X>X>X>X>X' + O D.>X>X>X>X>X>X>X>X>X>Xx.X @ 1 K F.,X                                      ",
"                                          >X>X>X] 9 8 *X>X>X>X>X>X>X>X>X>X-XA J S.oX                                            ",
"                                                  -X$X>X>X>X>X>X>X>X>X>X>X>X,X                                                  ",
"                                                        >X>X>X>X>X>X>X                                                          "
};
